HIERARCHY
ROOT Hips
{
	OFFSET 0.00000 0.00000 0.00000
	CHANNELS 6 Xposition Yposition Zposition Zrotation Yrotation Xrotation 
	JOINT LHipJoint
	{
		OFFSET 0 0 0
		CHANNELS 3 Zrotation Yrotation Xrotation
		JOINT LeftUpLeg
		{
			OFFSET 1.84395 -1.68683 0.74144
			CHANNELS 3 Zrotation Yrotation Xrotation
			JOINT LeftLeg
			{
				OFFSET 2.27037 -6.23779 0.00000
				CHANNELS 3 Zrotation Yrotation Xrotation
				JOINT LeftFoot
				{
					OFFSET 2.56918 -7.05877 0.00000
					CHANNELS 3 Zrotation Yrotation Xrotation
					JOINT LeftToeBase
					{
						OFFSET 0.22276 -0.61202 1.71784
						CHANNELS 3 Zrotation Yrotation Xrotation
						End Site
						{
							OFFSET 0.00000 -0.00000 0.91613
						}
					}
				}
			}
		}
	}
	JOINT RHipJoint
	{
		OFFSET 0 0 0
		CHANNELS 3 Zrotation Yrotation Xrotation
		JOINT RightUpLeg
		{
			OFFSET -1.76833 -1.68684 0.74144
			CHANNELS 3 Zrotation Yrotation Xrotation
			JOINT RightLeg
			{
				OFFSET -2.49360 -6.85110 0.00000
				CHANNELS 3 Zrotation Yrotation Xrotation
				JOINT RightFoot
				{
					OFFSET -2.55538 -7.02085 0.00000
					CHANNELS 3 Zrotation Yrotation Xrotation
					JOINT RightToeBase
					{
						OFFSET -0.21516 -0.59115 1.68050
						CHANNELS 3 Zrotation Yrotation Xrotation
						End Site
						{
							OFFSET -0.00000 -0.00000 0.89604
						}
					}
				}
			}
		}
	}
	JOINT LowerBack
	{
		OFFSET 0 0 0
		CHANNELS 3 Zrotation Yrotation Xrotation
		JOINT Spine
		{
			OFFSET 0.06382 1.72312 -0.19613
			CHANNELS 3 Zrotation Yrotation Xrotation
			JOINT Spine1
			{
				OFFSET -0.00055 1.73507 0.23859
				CHANNELS 3 Zrotation Yrotation Xrotation
				JOINT Neck
				{
					OFFSET 0 0 0
					CHANNELS 3 Zrotation Yrotation Xrotation
					JOINT Neck1
					{
						OFFSET 0.03638 1.65562 0.09633
						CHANNELS 3 Zrotation Yrotation Xrotation
						JOINT Head
						{
							OFFSET 0.06388 1.62807 -0.32386
							CHANNELS 3 Zrotation Yrotation Xrotation
							End Site
							{
								OFFSET 0.00995 1.67644 -0.12021
							}
						}
					}
				}
				JOINT LeftShoulder
				{
					OFFSET 0 0 0
					CHANNELS 3 Zrotation Yrotation Xrotation
					JOINT LeftArm
					{
						OFFSET 3.09648 1.42991 0.28122
						CHANNELS 3 Zrotation Yrotation Xrotation
						JOINT LeftForeArm
						{
							OFFSET 5.11878 -0.00000 -0.00000
							CHANNELS 3 Zrotation Yrotation Xrotation
							JOINT LeftHand
							{
								OFFSET 3.59971 -0.00000 0.00000
								CHANNELS 3 Zrotation Yrotation Xrotation
								JOINT LeftFingerBase
								{
									OFFSET 0 0 0
									CHANNELS 3 Zrotation Yrotation Xrotation
									JOINT LeftHandIndex1
									{
										OFFSET 0.62877 -0.00000 0.00000
										CHANNELS 3 Zrotation Yrotation Xrotation
										End Site
										{
											OFFSET 0.50693 -0.00000 0.00000
										}
									}
								}
								JOINT LThumb
								{
									OFFSET 0 0 0
									CHANNELS 3 Zrotation Yrotation Xrotation
									End Site
									{
										OFFSET 0.51467 -0.00000 0.51467
									}
								}
							}
						}
					}
				}
				JOINT RightShoulder
				{
					OFFSET 0 0 0
					CHANNELS 3 Zrotation Yrotation Xrotation
					JOINT RightArm
					{
						OFFSET -3.33565 1.14597 0.05047
						CHANNELS 3 Zrotation Yrotation Xrotation
						JOINT RightForeArm
						{
							OFFSET -5.49020 -0.00000 0.00000
							CHANNELS 3 Zrotation Yrotation Xrotation
							JOINT RightHand
							{
								OFFSET -3.20659 -0.00000 -0.00000
								CHANNELS 3 Zrotation Yrotation Xrotation
								JOINT RightFingerBase
								{
									OFFSET 0 0 0
									CHANNELS 3 Zrotation Yrotation Xrotation
									JOINT RightHandIndex1
									{
										OFFSET -0.69188 -0.00000 0.00000
										CHANNELS 3 Zrotation Yrotation Xrotation
										End Site
										{
											OFFSET -0.55781 -0.00000 0.00000
										}
									}
								}
								JOINT RThumb
								{
									OFFSET 0 0 0
									CHANNELS 3 Zrotation Yrotation Xrotation
									End Site
									{
										OFFSET -0.56633 -0.00000 0.56633
									}
								}
							}
						}
					}
				}
			}
		}
	}
}
MOTION
Frames: 11
Frame Time: .0083333
0.6556 17.416 9.055 0 0 0 0 0 0 -21 0 0 0 0 0 0 0 0 0 0 0 0 0 0 21 0 0 0 0 0 0 0 0 0 0 0 0 0 0 0 0 0 0 0 0 0 0 -16 0 0 21 0 0 11 0 0 0 -8 0 0 0 0 0 0 0 0 0 0 0 0 0 0 0 0 0 0 0 0 8 0 0 0 0 0 0 0 0 0 0 0 0 0 0 0 0 0
0.6556 17.4160 9.0550 -9.1730 -3.0539 8.9540 0.0000 0.0000 0.0000 -17.9590 -38.5901 22.2686 0.0486 -1.4228 -3.9131 -4.9842 42.0023 -42.0538 0.6389 5.1138 14.2333 0.0000 0.0000 0.0000 27.2693 23.4298 3.9943 -0.0308 -1.1323 3.1128 0.6282 -17.6820 -18.2821 -0.0493 -1.4323 3.9393 5.3831 1.8240 -0.9442 0.8130 2.7118 -8.5388 -2.3090 0.9869 -8.2511 -10.2472 -13.5211 2.4702 17.4877 -19.0633 2.1772 6.1511 -9.5170 2.9427 0.0000 -0.0000 0.0000 -91.8020 10.4568 -6.5679 11.4957 -19.0440 -1.9346 -0.0000 -0.0000 28.5717 17.4871 -10.7606 -3.3664 -7.1250 0.0000 -0.0000 -6.7615 18.7544 4.2583 0.0000 -0.0000 0.0000 95.3225 -12.6446 -5.0351 -13.7739 22.4105 -2.7413 0.0000 0.0000 43.2999 9.8864 -29.5896 -4.9187 7.1250 -0.0000 -0.0000 42.3863 -54.3187 -11.2331
0.6558 17.4151 9.0573 -9.1627 -3.0219 8.9643 0.0000 0.0000 0.0000 -18.0245 -38.6696 22.3330 0.0485 -1.4220 -3.9107 -4.9932 42.0525 -42.1390 0.6416 5.1244 14.2636 0.0000 0.0000 0.0000 27.2976 23.5272 4.1330 -0.0283 -1.0853 2.9837 0.6494 -17.8546 -18.3444 -0.0586 -1.5620 4.2967 5.3825 1.7399 -1.0117 0.8979 2.5995 -8.5436 -2.2106 0.9355 -8.2297 -10.4122 -13.5565 2.0336 17.2752 -19.1633 2.8270 6.0473 -9.5280 3.2136 -0.0000 -0.0000 0.0000 -91.9800 10.4401 -7.5149 11.4281 -18.9415 -1.9126 -0.0000 -0.0000 29.5071 17.2178 -10.9885 -3.3805 -7.1250 0.0000 -0.0000 -6.9513 18.5370 4.4133 -0.0000 -0.0000 0.0000 95.1181 -12.6994 -4.5568 -13.8138 22.4679 -2.7565 0.0000 0.0000 43.0898 10.1298 -29.8186 -5.0769 7.1250 -0.0000 -0.0000 42.7999 -54.4477 -11.5238
0.6543 17.4149 9.0625 -9.1641 -2.9866 8.9534 0.0000 0.0000 0.0000 -18.1142 -38.7596 22.4891 0.0496 -1.4374 -3.9531 -4.9771 42.0956 -42.3159 0.6484 5.1510 14.3398 0.0000 0.0000 0.0000 27.3780 23.6777 4.3456 -0.0259 -1.0399 2.8587 0.6706 -18.0511 -18.4626 -0.0664 -1.6628 4.5747 5.3737 1.6529 -1.0997 0.9880 2.4814 -8.5380 -2.1012 0.8829 -8.1853 -10.6031 -13.5135 1.6872 17.1158 -19.1624 3.4767 5.9809 -9.4949 3.4641 -0.0000 -0.0000 0.0000 -92.1607 10.4492 -8.2508 11.3994 -18.8979 -1.9033 -0.0000 -0.0000 30.1656 17.1386 -10.7923 -3.3048 -7.1250 0.0000 -0.0000 -7.0073 18.7455 4.4168 -0.0000 -0.0000 0.0000 94.9206 -12.7233 -4.2089 -13.8113 22.4643 -2.7556 0.0000 0.0000 43.0623 10.2054 -29.7928 -5.1114 7.1250 -0.0000 -0.0000 42.8438 -54.4135 -11.5005
0.6513 17.4158 9.0680 -9.2510 -2.9353 8.9790 0.0000 0.0000 0.0000 -18.0094 -38.8134 22.5365 0.0509 -1.4553 -4.0025 -4.9652 42.1023 -42.3842 0.6503 5.1585 14.3611 0.0000 0.0000 0.0000 27.5551 23.8815 4.5147 -0.0245 -1.0112 2.7797 0.6930 -18.2704 -18.6153 -0.0718 -1.7286 4.7563 5.4373 1.5620 -1.2178 1.1064 2.3611 -8.5518 -2.0018 0.8248 -8.1441 -10.7650 -13.4140 1.3288 16.9024 -19.0919 4.2499 5.8990 -9.4251 3.7358 -0.0000 0.0000 0.0000 -92.3191 10.4925 -8.9025 11.3172 -18.7728 -1.8767 -0.0000 -0.0000 30.3645 17.4563 -11.0848 -3.4598 -7.1250 0.0000 -0.0000 -6.7836 18.4205 4.3229 -0.0000 0.0000 0.0000 94.6945 -12.7298 -3.8847 -13.7728 22.4089 -2.7409 0.0000 0.0000 43.0368 10.0668 -29.6192 -5.0143 7.1250 -0.0000 -0.0000 42.5707 -54.3070 -11.2841
0.6464 17.4197 9.0728 -8.9288 -2.9509 9.1022 0.0000 0.0000 0.0000 -18.4061 -39.1401 22.5581 0.0498 -1.4404 -3.9613 -4.9599 42.2281 -42.7153 0.6674 5.2246 14.5504 0.0000 0.0000 0.0000 27.2203 24.3555 4.6085 -0.0235 -0.9907 2.7231 0.7394 -18.6822 -18.8568 -0.0804 -1.8294 5.0345 5.0102 1.4647 -1.4658 1.1334 2.2015 -8.5895 -1.7210 0.7792 -8.0623 -10.8386 -13.3147 0.8503 16.5583 -19.0128 5.1440 5.7566 -9.3443 4.0415 0.0000 0.0000 0.0000 -92.4173 10.7016 -8.8599 11.3236 -18.7826 -1.8788 -0.0000 -0.0000 29.8439 17.6472 -11.3852 -3.5934 -7.1250 0.0000 -0.0000 -6.6506 18.0951 4.2850 0.0000 0.0000 0.0000 94.3765 -12.6180 -3.4561 -13.5973 22.1562 -2.6744 0.0000 0.0000 42.9031 9.9162 -29.5958 -4.9346 7.1250 -0.0000 -0.0000 42.4180 -54.3178 -11.2431
0.6401 17.4294 9.0995 -8.8370 -2.7344 9.5301 0.0000 0.0000 0.0000 -18.3468 -39.6274 22.3107 0.0506 -1.4522 -3.9939 -5.0267 42.3980 -42.8450 0.6609 5.1996 14.4787 0.0000 0.0000 0.0000 27.0944 24.7694 4.5175 -0.0206 -0.9257 2.5445 0.7950 -19.1475 -19.1106 -0.0851 -1.8822 5.1801 4.8360 1.3327 -2.4083 1.2326 1.9636 -8.6291 -1.4844 0.6896 -7.5791 -10.9716 -13.1855 0.3552 16.2994 -18.8839 5.9611 5.6555 -9.2417 4.3363 0.0000 0.0000 0.0000 -92.5776 11.0014 -7.9101 11.5964 -19.1967 -1.9676 -0.0000 -0.0000 28.8566 17.2102 -9.2709 -2.8568 -7.1250 0.0000 -0.0000 -6.9661 20.3162 4.1445 0.0000 0.0000 0.0000 93.9712 -12.4003 -2.9406 -13.2916 21.7129 -2.5601 0.0000 0.0000 42.6959 9.6519 -29.6426 -4.8081 7.1250 -0.0000 -0.0000 42.2258 -54.4044 -11.2731
0.6355 17.4339 9.1117 -8.6941 -2.6633 9.7133 0.0000 0.0000 0.0000 -18.4505 -39.8730 22.2170 0.0504 -1.4489 -3.9849 -5.0217 42.4533 -43.0010 0.6709 5.2379 14.5885 0.0000 0.0000 0.0000 26.9251 25.0052 4.4922 -0.0195 -0.9017 2.4784 0.8199 -19.3731 -19.2690 -0.0913 -1.9492 5.3652 4.6276 1.1948 -2.8160 1.3089 1.7557 -8.7232 -1.2721 0.6053 -7.4641 -11.1566 -12.9674 0.1503 16.1791 -18.6441 6.6218 5.6429 -9.1032 4.5403 0.0000 0.0000 0.0000 -92.7932 11.1144 -8.7508 11.5894 -19.1860 -1.9652 -0.0000 -0.0000 29.4548 17.0117 -8.7917 -2.6773 -7.1250 0.0000 -0.0000 -7.1147 20.8237 4.1524 0.0000 0.0000 0.0000 93.6579 -12.4116 -2.4511 -13.1354 21.4853 -2.5027 0.0000 0.0000 42.5195 9.5017 -29.6679 -4.7358 7.1250 -0.0000 -0.0000 42.1151 -54.4527 -11.2882
0.6342 17.4336 9.1164 -8.6927 -2.5923 9.7346 0.0000 0.0000 0.0000 -18.4472 -39.9206 22.2228 0.0505 -1.4502 -3.9884 -5.0502 42.4875 -42.9641 0.6563 5.1819 14.4280 0.0000 0.0000 0.0000 26.9401 25.0276 4.5371 -0.0186 -0.8809 2.4213 0.8247 -19.4310 -19.3328 -0.0992 -2.0310 5.5914 4.6478 1.0689 -2.8905 1.3793 1.5893 -8.8034 -1.2027 0.5218 -7.5200 -11.1337 -12.7983 -0.1344 15.8644 -18.4510 7.3309 5.5320 -8.9844 4.7408 0.0000 0.0000 0.0000 -92.9397 11.1606 -9.8561 11.4872 -19.0312 -1.9318 -0.0000 -0.0000 30.3136 16.9933 -9.1024 -2.7679 -7.1250 0.0000 -0.0000 -7.1235 20.5031 4.2094 0.0000 0.0000 0.0000 93.4769 -12.5217 -2.1177 -13.1278 21.4742 -2.4999 0.0000 0.0000 42.4679 9.5089 -29.6740 -4.7404 7.1250 -0.0000 -0.0000 42.1268 -54.4560 -11.2960
0.6341 17.4328 9.1208 -8.6951 -2.5177 9.7424 0.0000 0.0000 0.0000 -18.4403 -39.9430 22.2305 0.0509 -1.4562 -4.0049 -5.0875 42.5187 -42.8823 0.6379 5.1098 14.2221 0.0000 0.0000 0.0000 26.9614 25.0200 4.5832 -0.0178 -0.8618 2.3686 0.8314 -19.4878 -19.3683 -0.1033 -2.0724 5.7058 4.6958 0.9421 -2.9307 1.4560 1.4240 -8.8688 -1.1426 0.4373 -7.5792 -11.0456 -12.6356 -0.4147 15.4613 -18.2416 7.9479 5.3898 -8.8630 4.8975 0.0000 0.0000 0.0000 -93.0774 11.2962 -10.3926 11.4501 -18.9748 -1.9197 -0.0000 -0.0000 30.6201 17.0473 -9.3673 -2.8572 -7.1250 0.0000 -0.0000 -7.0815 20.2259 4.2286 0.0000 0.0000 0.0000 93.2585 -12.6232 -1.7943 -13.1085 21.4460 -2.4928 0.0000 0.0000 42.5371 9.4829 -29.5656 -4.7116 7.1250 -0.0000 -0.0000 42.0100 -54.3774 -11.1680
0.6328 17.4323 9.1237 -8.6790 -2.4810 9.7101 0.0000 0.0000 0.0000 -18.4723 -39.9155 22.2665 0.0513 -1.4612 -4.0188 -5.0660 42.4751 -42.8667 0.6470 5.1454 14.3238 0.0000 0.0000 0.0000 26.9821 25.0134 4.6602 -0.0175 -0.8548 2.3493 0.8349 -19.5331 -19.4206 -0.1030 -2.0698 5.6985 4.6703 0.8037 -2.9319 1.5981 1.2473 -8.9064 -0.9730 0.3555 -7.6331 -11.2356 -12.4174 -0.5695 15.3070 -17.9523 8.3216 5.3851 -8.7156 4.9993 0.0000 -0.0000 0.0000 -93.3648 11.3943 -11.0282 11.4264 -18.9389 -1.9120 -0.0000 -0.0000 30.8906 17.1383 -9.4070 -2.8854 -7.1250 0.0000 -0.0000 -7.0161 20.1795 4.1963 0.0000 -0.0000 0.0000 92.9034 -12.7126 -1.3732 -13.0931 21.4235 -2.4872 0.0000 0.0000 42.5478 9.4588 -29.4553 -4.6836 7.1250 -0.0000 -0.0000 41.8938 -54.2969 -11.0385
